<?xml version="1.0" encoding="UTF-8"?>
<svg xmlns="http://www.w3.org/2000/svg" xmlns:xlink="http://www.w3.org/1999/xlink" width="40px" height="40px" viewBox="0 0 40 40" version="1.1">
<g id="surface1">
<path style=" stroke:none;fill-rule:nonzero;fill:rgb(100%,42.352941%,21.568627%);fill-opacity:1;" d="M 34.714844 10.171875 C 29.425781 3.324219 19.585938 2.058594 12.738281 7.347656 C 5.894531 12.636719 4.628906 22.476562 9.917969 29.324219 C 15.207031 36.167969 25.046875 37.429688 31.894531 32.140625 C 38.738281 26.851562 40 17.019531 34.714844 10.171875 Z M 34.714844 10.171875 "/>
<path style=" stroke:none;fill-rule:nonzero;fill:rgb(100%,100%,100%);fill-opacity:1;" d="M 27.597656 14.0625 L 20.992188 20.71875 L 19.128906 18.800781 C 25.628906 12.300781 26.28125 12.886719 27.597656 14.0625 Z M 27.597656 14.0625 "/>
<path style=" stroke:none;fill-rule:nonzero;fill:rgb(100%,42.352941%,21.568627%);fill-opacity:1;" d="M 20.992188 20.902344 C 20.933594 20.902344 20.878906 20.878906 20.835938 20.835938 L 18.957031 18.957031 C 18.871094 18.867188 18.871094 18.722656 18.957031 18.628906 C 25.367188 12.222656 26.242188 12.519531 27.753906 13.890625 C 27.808594 13.933594 27.835938 13.996094 27.832031 14.0625 C 27.84375 14.125 27.820312 14.191406 27.769531 14.230469 L 21.164062 20.835938 C 21.117188 20.878906 21.058594 20.902344 20.992188 20.902344 Z M 19.453125 18.800781 L 20.992188 20.339844 L 27.257812 14.074219 C 26.8125 13.515625 26.011719 13.378906 25.40625 13.761719 C 24.269531 14.269531 22.441406 15.824219 19.453125 18.800781 Z M 19.453125 18.800781 "/>
<path style=" stroke:none;fill-rule:nonzero;fill:rgb(100%,100%,100%);fill-opacity:1;" d="M 22.886719 22.558594 L 21.085938 20.71875 L 27.691406 14.191406 C 29.464844 15.929688 26.828125 18.828125 22.886719 22.558594 Z M 22.886719 22.558594 "/>
<path style=" stroke:none;fill-rule:nonzero;fill:rgb(100%,42.352941%,21.568627%);fill-opacity:1;" d="M 22.886719 22.796875 C 22.828125 22.789062 22.773438 22.769531 22.730469 22.730469 L 20.890625 20.929688 C 20.863281 20.863281 20.863281 20.785156 20.890625 20.71875 C 20.871094 20.664062 20.871094 20.605469 20.890625 20.550781 L 27.496094 13.945312 C 27.589844 13.855469 27.738281 13.855469 27.832031 13.945312 C 28.265625 14.34375 28.503906 14.910156 28.488281 15.5 C 28.488281 17.261719 26.476562 19.480469 23.054688 22.71875 C 23.011719 22.761719 22.949219 22.789062 22.886719 22.796875 Z M 21.425781 20.71875 L 22.898438 22.195312 C 25.511719 19.726562 28.003906 17.183594 28.015625 15.457031 C 28.03125 15.09375 27.910156 14.734375 27.675781 14.453125 Z M 21.425781 20.71875 "/>
<path style=" stroke:none;fill-rule:nonzero;fill:rgb(100%,100%,100%);fill-opacity:1;" d="M 19.179688 18.839844 L 20.484375 20.144531 C 20.5 20.160156 20.511719 20.183594 20.511719 20.203125 C 20.511719 20.226562 20.5 20.25 20.484375 20.261719 L 17.730469 20.851562 C 17.617188 20.875 17.5 20.820312 17.445312 20.71875 C 17.390625 20.613281 17.410156 20.488281 17.496094 20.40625 L 19.101562 18.8125 C 19.101562 18.8125 19.152344 18.8125 19.179688 18.839844 Z M 19.179688 18.839844 "/>
<path style=" stroke:none;fill-rule:nonzero;fill:rgb(100%,42.352941%,21.568627%);fill-opacity:1;" d="M 17.664062 21.113281 C 17.488281 21.109375 17.324219 21.015625 17.234375 20.863281 C 17.132812 20.667969 17.167969 20.429688 17.324219 20.277344 L 18.917969 18.671875 C 19.039062 18.5625 19.21875 18.5625 19.335938 18.671875 L 20.640625 19.976562 C 20.71875 20.050781 20.75 20.160156 20.71875 20.261719 C 20.691406 20.367188 20.605469 20.449219 20.496094 20.472656 L 17.742188 21.058594 Z M 19.128906 19.128906 L 17.652344 20.601562 L 20.09375 20.082031 Z M 19.246094 19.011719 Z M 19.246094 19.011719 "/>
<path style=" stroke:none;fill-rule:nonzero;fill:rgb(100%,100%,100%);fill-opacity:1;" d="M 31.109375 10.394531 C 30.167969 9.484375 28.683594 9.445312 27.691406 10.304688 C 26.699219 11.164062 26.53125 12.640625 27.300781 13.703125 C 28.074219 14.765625 29.527344 15.0625 30.652344 14.386719 L 28.878906 12.613281 Z M 31.109375 10.394531 "/>
<path style=" stroke:none;fill-rule:nonzero;fill:rgb(100%,42.352941%,21.568627%);fill-opacity:1;" d="M 29.347656 14.988281 C 28.238281 14.972656 27.246094 14.296875 26.824219 13.269531 C 26.40625 12.246094 26.636719 11.066406 27.410156 10.277344 C 28.5 9.210938 30.242188 9.210938 31.328125 10.277344 C 31.378906 10.320312 31.40625 10.378906 31.40625 10.445312 C 31.40625 10.511719 31.378906 10.574219 31.328125 10.617188 L 29.214844 12.613281 L 30.820312 14.191406 C 30.871094 14.242188 30.894531 14.316406 30.882812 14.390625 C 30.875 14.457031 30.839844 14.519531 30.78125 14.558594 C 30.347656 14.828125 29.851562 14.976562 29.34375 14.988281 Z M 29.347656 9.921875 C 28.417969 9.929688 27.585938 10.488281 27.238281 11.34375 C 26.886719 12.199219 27.078125 13.183594 27.730469 13.839844 C 28.394531 14.507812 29.398438 14.699219 30.261719 14.324219 L 28.722656 12.78125 C 28.671875 12.742188 28.644531 12.683594 28.644531 12.617188 C 28.644531 12.554688 28.671875 12.496094 28.722656 12.457031 L 30.757812 10.40625 C 30.355469 10.097656 29.859375 9.925781 29.347656 9.921875 Z M 29.347656 9.921875 "/>
<path style=" stroke:none;fill-rule:nonzero;fill:rgb(100%,100%,100%);fill-opacity:1;" d="M 31.148438 10.433594 L 28.917969 12.652344 L 30.691406 14.425781 C 30.871094 14.324219 31.039062 14.203125 31.1875 14.0625 C 32.15625 13.039062 32.140625 11.433594 31.148438 10.433594 Z M 31.148438 10.433594 "/>
<path style=" stroke:none;fill-rule:nonzero;fill:rgb(100%,42.352941%,21.568627%);fill-opacity:1;" d="M 30.652344 14.625 C 30.59375 14.625 30.535156 14.601562 30.496094 14.558594 L 28.722656 12.78125 C 28.671875 12.742188 28.644531 12.683594 28.644531 12.621094 C 28.644531 12.554688 28.671875 12.496094 28.722656 12.457031 L 30.941406 10.277344 C 30.984375 10.210938 31.058594 10.171875 31.136719 10.171875 C 31.214844 10.171875 31.289062 10.210938 31.332031 10.277344 C 31.859375 10.792969 32.15625 11.496094 32.15625 12.234375 C 32.15625 12.972656 31.859375 13.675781 31.332031 14.191406 C 31.179688 14.355469 31.003906 14.496094 30.808594 14.609375 C 30.761719 14.632812 30.703125 14.640625 30.652344 14.625 Z M 29.21875 12.613281 L 30.691406 14.089844 C 30.792969 14.015625 30.890625 13.9375 30.980469 13.851562 C 31.414062 13.421875 31.65625 12.835938 31.660156 12.222656 C 31.660156 11.675781 31.460938 11.144531 31.097656 10.734375 Z M 29.21875 12.613281 "/>
<path style=" stroke:none;fill-rule:nonzero;fill:rgb(100%,100%,100%);fill-opacity:1;" d="M 27.875 14.335938 C 27.507812 13.992188 26.933594 13.992188 26.566406 14.335938 L 20.65625 20.234375 L 21.632812 21.230469 L 27.886719 15.746094 C 28.078125 15.5625 28.1875 15.304688 28.183594 15.039062 C 28.183594 14.769531 28.070312 14.515625 27.875 14.335938 Z M 27.875 14.335938 "/>
<path style=" stroke:none;fill-rule:nonzero;fill:rgb(100%,42.352941%,21.568627%);fill-opacity:1;" d="M 21.582031 21.464844 C 21.523438 21.460938 21.46875 21.4375 21.425781 21.398438 L 20.433594 20.40625 C 20.34375 20.316406 20.34375 20.171875 20.433594 20.082031 L 26.347656 14.191406 C 26.695312 13.84375 27.21875 13.746094 27.671875 13.941406 C 28.125 14.136719 28.410156 14.585938 28.394531 15.082031 C 28.382812 15.410156 28.234375 15.71875 27.992188 15.941406 L 21.738281 21.425781 C 21.691406 21.457031 21.636719 21.46875 21.582031 21.464844 Z M 20.890625 20.234375 L 21.542969 20.902344 L 27.675781 15.5625 C 27.828125 15.429688 27.917969 15.242188 27.925781 15.039062 C 27.929688 14.839844 27.851562 14.640625 27.703125 14.503906 C 27.417969 14.222656 26.957031 14.222656 26.671875 14.503906 Z M 20.890625 20.234375 "/>
<path style=" stroke:none;fill-rule:nonzero;fill:rgb(100%,100%,100%);fill-opacity:1;" d="M 16.074219 26.960938 C 16.039062 27.007812 16.039062 27.070312 16.074219 27.117188 L 16.332031 28.25 C 16.355469 28.386719 16.289062 28.523438 16.171875 28.59375 C 16.050781 28.664062 15.902344 28.648438 15.796875 28.558594 L 14.011719 26.832031 L 19.585938 21.214844 L 21.515625 21.214844 L 22.820312 22.519531 C 20.785156 24.300781 18.515625 25.792969 16.074219 26.960938 Z M 16.074219 26.960938 "/>
<path style=" stroke:none;fill-rule:nonzero;fill:rgb(100%,42.352941%,21.568627%);fill-opacity:1;" d="M 15.957031 28.878906 C 15.808594 28.875 15.660156 28.816406 15.5625 28.707031 L 13.855469 27 C 13.804688 26.957031 13.773438 26.898438 13.773438 26.835938 C 13.773438 26.773438 13.804688 26.710938 13.855469 26.671875 L 19.464844 21.046875 C 19.496094 21.011719 19.539062 20.988281 19.585938 20.980469 L 21.527344 20.980469 C 21.578125 20.964844 21.636719 20.964844 21.6875 20.980469 L 22.992188 22.285156 C 23.042969 22.332031 23.066406 22.402344 23.054688 22.46875 C 23.058594 22.535156 23.027344 22.597656 22.976562 22.640625 L 22.875 22.730469 C 20.828125 24.433594 18.578125 25.878906 16.175781 27.023438 L 16.425781 28.082031 C 16.464844 28.246094 16.425781 28.421875 16.324219 28.554688 C 16.21875 28.691406 16.058594 28.769531 15.890625 28.773438 Z M 14.363281 26.828125 L 15.902344 28.382812 C 15.933594 28.410156 15.976562 28.410156 16.007812 28.382812 C 16.027344 28.355469 16.027344 28.316406 16.007812 28.289062 L 15.746094 27.15625 C 15.703125 26.988281 15.785156 26.8125 15.941406 26.738281 C 18.28125 25.605469 20.472656 24.195312 22.46875 22.535156 L 21.398438 21.464844 L 19.648438 21.464844 Z M 16.242188 27.0625 Z M 16.242188 27.0625 "/>
<path style=" stroke:none;fill-rule:nonzero;fill:rgb(100%,100%,100%);fill-opacity:1;" d="M 12.664062 28.171875 L 13.972656 26.867188 L 15.980469 28.878906 L 12.785156 28.65625 C 12.671875 28.648438 12.578125 28.566406 12.550781 28.457031 C 12.523438 28.347656 12.570312 28.234375 12.667969 28.175781 Z M 12.664062 28.171875 "/>
<path style=" stroke:none;fill-rule:nonzero;fill:rgb(100%,42.352941%,21.568627%);fill-opacity:1;" d="M 16.019531 29.074219 L 12.835938 28.851562 C 12.644531 28.835938 12.484375 28.707031 12.417969 28.53125 C 12.351562 28.359375 12.390625 28.15625 12.523438 28.015625 L 13.828125 26.710938 C 13.917969 26.625 14.0625 26.625 14.152344 26.710938 L 16.152344 28.707031 C 16.207031 28.785156 16.207031 28.890625 16.152344 28.96875 C 16.121094 29.019531 16.074219 29.054688 16.019531 29.074219 Z M 12.835938 28.34375 L 15.445312 28.511719 L 14.011719 27.167969 Z M 12.835938 28.34375 "/>
<path style=" stroke:none;fill-rule:nonzero;fill:rgb(100%,100%,100%);fill-opacity:1;" d="M 21.699219 21.371094 L 19.0625 21.777344 L 20.589844 20.265625 Z M 21.699219 21.371094 "/>
<path style=" stroke:none;fill-rule:nonzero;fill:rgb(100%,42.352941%,21.568627%);fill-opacity:1;" d="M 19.0625 22.023438 C 18.972656 22.027344 18.890625 21.976562 18.851562 21.894531 C 18.796875 21.816406 18.796875 21.710938 18.851562 21.632812 L 20.367188 20.105469 C 20.460938 20.015625 20.609375 20.015625 20.707031 20.105469 L 21.816406 21.214844 C 21.863281 21.285156 21.863281 21.378906 21.816406 21.449219 C 21.792969 21.539062 21.722656 21.605469 21.632812 21.621094 L 19.023438 22.023438 Z M 20.589844 20.601562 L 19.742188 21.449219 L 21.203125 21.230469 Z M 20.589844 20.601562 "/>
<path style=" stroke:none;fill-rule:nonzero;fill:rgb(100%,100%,100%);fill-opacity:1;" d="M 21.699219 21.371094 L 19.859375 21.605469 C 19.757812 21.628906 19.652344 21.582031 19.601562 21.492188 C 19.550781 21.402344 19.566406 21.289062 19.636719 21.214844 L 20.589844 20.261719 Z M 21.699219 21.371094 "/>
<path style=" stroke:none;fill-rule:nonzero;fill:rgb(100%,42.352941%,21.568627%);fill-opacity:1;" d="M 19.804688 21.855469 C 19.632812 21.855469 19.472656 21.757812 19.386719 21.609375 C 19.285156 21.421875 19.316406 21.195312 19.464844 21.046875 L 20.417969 20.09375 C 20.515625 20.003906 20.664062 20.003906 20.757812 20.09375 L 21.867188 21.203125 C 21.9375 21.265625 21.960938 21.363281 21.929688 21.453125 C 21.898438 21.539062 21.816406 21.601562 21.726562 21.609375 L 19.898438 21.84375 Z M 19.804688 21.371094 L 21.191406 21.203125 L 20.578125 20.589844 L 19.792969 21.371094 Z M 31.164062 11.933594 C 31.113281 11.847656 31.003906 11.816406 30.914062 11.855469 C 30.871094 11.878906 30.839844 11.917969 30.824219 11.964844 C 30.808594 12.011719 30.8125 12.0625 30.835938 12.105469 C 30.925781 12.296875 30.902344 12.523438 30.769531 12.691406 C 30.738281 12.722656 30.71875 12.769531 30.722656 12.816406 C 30.722656 12.863281 30.738281 12.90625 30.769531 12.941406 C 30.804688 12.953125 30.84375 12.953125 30.875 12.941406 C 30.9375 12.953125 31.003906 12.933594 31.046875 12.886719 C 31.265625 12.617188 31.308594 12.246094 31.164062 11.933594 Z M 31.164062 11.933594 "/>
</g>
</svg>
